# xmcd
#
# Track frame offsets: 
#        150
#        18082
#        38119
#        56819
#        79022
#        100294
#        131757
#        148036
#        163642
#        198576
#        217820
#        236415
#        272482
#        301925
#        325928
#
# Disc length: 4693 seconds
#
# Revision: 0
# Processed by: cddbd v1.5.2PL0 Copyright (c) Steve Scherf et al.
# Submitted via: ExactAudioCopyFreeDBPlugin 1.0
#
DISCID=ca12530f
DTITLE=Various Artist - Space Funk (Afro Futurist Electro Funk In Spa
DTITLE=ce 1976-84)
DYEAR=2019
DGENRE=No, thanks.
TTITLE0=LEO - Fee Fi Fo Fum
TTITLE1=The Sonarphonic - Super Breaker
TTITLE2=Santiago - Bionic Funk
TTITLE3=Frank Cornilius - Computer Games
TTITLE4=Juju and The Space Rangers - Plastic
TTITLE5=Jamie Jupitor - Computer Power
TTITLE6=Solaris - Space Invaders
TTITLE7=Copperfield - Make It Good To Me Baby
TTITLE8=Robotron 4 - Electro-?
TTITLE9=Ernest Flippin II - Supersonic Space Lady
TTITLE10=Funk Machine - Funk Machine
TTITLE11=Ramsey 2C-3D - Fly Guy and The Unemployed
TTITLE12=Osé - Computer Funk
TTITLE13=7 Below Zero Band - Seven (We Are)
TTITLE14=Rodney Stepp - Break-Out
EXTD=
EXTT0=
EXTT1=
EXTT2=
EXTT3=
EXTT4=
EXTT5=
EXTT6=
EXTT7=
EXTT8=
EXTT9=
EXTT10=
EXTT11=
EXTT12=
EXTT13=
EXTT14=
PLAYORDER=
